<svg width="370" height="365" viewBox="0 0 370 365" fill="none" xmlns="http://www.w3.org/2000/svg">
<mask id="mask0_2_9" style="mask-type:alpha" maskUnits="userSpaceOnUse" x="0" y="0" width="370" height="365">
<path d="M185 365C287.173 365 370 283.292 370 182.5C370 81.708 287.173 0 185 0C82.8273 0 0 81.708 0 182.5C0 283.292 82.8273 365 185 365Z" fill="#050000"/>
</mask>
<g mask="url(#mask0_2_9)">
<path d="M185.5 449C262.544 449 325 388.335 325 313.5C325 238.665 262.544 178 185.5 178C108.456 178 46 238.665 46 313.5C46 388.335 108.456 449 185.5 449Z" fill="#93693A"/>
</g>
<path d="M185 161C214.823 161 239 136.823 239 107C239 77.1766 214.823 53 185 53C155.177 53 131 77.1766 131 107C131 136.823 155.177 161 185 161Z" fill="#DF2F6E"/>
</svg>
